<?xml version="1.0" encoding="utf-8" standalone="no"?>
<!DOCTYPE svg PUBLIC "-//W3C//DTD SVG 1.1//EN"
  "http://www.w3.org/Graphics/SVG/1.1/DTD/svg11.dtd">
<svg xmlns:xlink="http://www.w3.org/1999/xlink" width="959.999976pt" height="540pt" viewBox="0 0 959.999976 540" xmlns="http://www.w3.org/2000/svg" version="1.1">
 <metadata>
  <rdf:RDF xmlns:dc="http://purl.org/dc/elements/1.1/" xmlns:cc="http://creativecommons.org/ns#" xmlns:rdf="http://www.w3.org/1999/02/22-rdf-syntax-ns#">
   <cc:Work>
    <dc:type rdf:resource="http://purl.org/dc/dcmitype/StillImage"/>
    <dc:date>2026-08-17T13:39:28.235870</dc:date>
    <dc:format>image/svg+xml</dc:format>
    <dc:creator>
     <cc:Agent>
      <dc:title>Matplotlib v3.9.4, https://matplotlib.org/</dc:title>
     </cc:Agent>
    </dc:creator>
   </cc:Work>
  </rdf:RDF>
 </metadata>
 <defs>
  <style type="text/css">*{stroke-linejoin: round; stroke-linecap: butt}</style>
 </defs>
 <g id="figure_1">
  <g id="patch_1">
   <path d="M 0 540 
L 959.999976 540 
L 959.999976 0 
L 0 0 
z
" style="fill: #ffffff"/>
  </g>
  <g id="axes_1">
   <g id="patch_2">
    <path d="M 34.367999 255.528 
L 925.631977 255.528 
Q 937.151977 255.528 937.151977 249.048 
L 937.151977 157.032 
Q 937.151977 150.552 925.631977 150.552 
L 34.367999 150.552 
Q 22.847999 150.552 22.847999 157.032 
L 22.847999 249.048 
Q 22.847999 255.528 34.367999 255.528 
z
" clip-path="url(#p2bfc234abe)" style="fill: #e7f0f8; stroke: #2f679c; stroke-width: 1.15; stroke-linejoin: miter"/>
   </g>
   <g id="patch_3">
    <path d="M 34.367999 381.888 
L 925.631977 381.888 
Q 937.151977 381.888 937.151977 375.408 
L 937.151977 281.232 
Q 937.151977 274.752 925.631977 274.752 
L 34.367999 274.752 
Q 22.847999 274.752 22.847999 281.232 
L 22.847999 375.408 
Q 22.847999 381.888 34.367999 381.888 
z
" clip-path="url(#p2bfc234abe)" style="fill: #e5f3f1; stroke: #2f7e7a; stroke-width: 1.15; stroke-linejoin: miter"/>
   </g>
   <g id="patch_4">
    <path d="M 55.967999 66.798 
L 904.031977 66.798 
Q 912.671977 66.798 912.671977 61.938 
L 912.671977 51.462 
Q 912.671977 46.602 904.031977 46.602 
L 55.967999 46.602 
Q 47.327999 46.602 47.327999 51.462 
L 47.327999 61.938 
Q 47.327999 66.798 55.967999 66.798 
z
" clip-path="url(#p2bfc234abe)" style="fill: #f3f5f7; stroke: #80909e; stroke-width: 0.9; stroke-linejoin: miter"/>
   </g>
   <g id="patch_5">
    <path d="M 55.967999 100.818 
L 207.071995 100.818 
Q 215.711995 100.818 215.711995 95.958 
L 215.711995 81.702 
Q 215.711995 76.842 207.071995 76.842 
L 55.967999 76.842 
Q 47.327999 76.842 47.327999 81.702 
L 47.327999 95.958 
Q 47.327999 100.818 55.967999 100.818 
z
" clip-path="url(#p2bfc234abe)" style="fill: #ffffff; stroke: #80909e; stroke-width: 0.9; stroke-linejoin: miter"/>
   </g>
   <g id="patch_6">
    <path d="M 288.287993 100.818 
L 439.391989 100.818 
Q 448.031989 100.818 448.031989 95.958 
L 448.031989 81.702 
Q 448.031989 76.842 439.391989 76.842 
L 288.287993 76.842 
Q 279.647993 76.842 279.647993 81.702 
L 279.647993 95.958 
Q 279.647993 100.818 288.287993 100.818 
z
" clip-path="url(#p2bfc234abe)" style="fill: #ffffff; stroke: #80909e; stroke-width: 0.9; stroke-linejoin: miter"/>
   </g>
   <g id="patch_7">
    <path d="M 520.607987 100.818 
L 671.711983 100.818 
Q 680.351983 100.818 680.351983 95.958 
L 680.351983 81.702 
Q 680.351983 76.842 671.711983 76.842 
L 520.607987 76.842 
Q 511.967987 76.842 511.967987 81.702 
L 511.967987 95.958 
Q 511.967987 100.818 520.607987 100.818 
z
" clip-path="url(#p2bfc234abe)" style="fill: #ffffff; stroke: #80909e; stroke-width: 0.9; stroke-linejoin: miter"/>
   </g>
   <g id="patch_8">
    <path d="M 752.927981 100.818 
L 904.031977 100.818 
Q 912.671977 100.818 912.671977 95.958 
L 912.671977 81.702 
Q 912.671977 76.842 904.031977 76.842 
L 752.927981 76.842 
Q 744.287981 76.842 744.287981 81.702 
L 744.287981 95.958 
Q 744.287981 100.818 752.927981 100.818 
z
" clip-path="url(#p2bfc234abe)" style="fill: #ffffff; stroke: #80909e; stroke-width: 0.9; stroke-linejoin: miter"/>
   </g>
   <g id="patch_9">
    <path d="M 161.567996 140.778 
L 798.43198 140.778 
Q 807.07198 140.778 807.07198 135.918 
L 807.07198 128.682 
Q 807.07198 123.822 798.43198 123.822 
L 161.567996 123.822 
Q 152.927996 123.822 152.927996 128.682 
L 152.927996 135.918 
Q 152.927996 140.778 161.567996 140.778 
z
" clip-path="url(#p2bfc234abe)" style="fill: #244b70; stroke: #244b70; stroke-width: 0.9; stroke-linejoin: miter"/>
   </g>
   <g id="patch_10">
    <path d="M 54.047999 242.838 
L 278.111993 242.838 
Q 286.751993 242.838 286.751993 237.978 
L 286.751993 184.842 
Q 286.751993 179.982 278.111993 179.982 
L 54.047999 179.982 
Q 45.407999 179.982 45.407999 184.842 
L 45.407999 237.978 
Q 45.407999 242.838 54.047999 242.838 
z
" clip-path="url(#p2bfc234abe)" style="fill: #ffffff; stroke: #2f679c; stroke-width: 0.9; stroke-linejoin: miter"/>
   </g>
   <g id="patch_11">
    <path d="M 313.247992 234.738 
L 414.43199 234.738 
Q 423.071989 234.738 423.071989 229.878 
L 423.071989 193.482 
Q 423.071989 188.622 414.43199 188.622 
L 313.247992 188.622 
Q 304.607992 188.622 304.607992 193.482 
L 304.607992 229.878 
Q 304.607992 234.738 313.247992 234.738 
z
" clip-path="url(#p2bfc234abe)" style="fill: #f6eedc; stroke: #a2762b; stroke-width: 0.9; stroke-linejoin: miter"/>
   </g>
   <g id="patch_12">
    <path d="M 452.447989 242.838 
L 681.311983 242.838 
Q 689.951983 242.838 689.951983 237.978 
L 689.951983 184.842 
Q 689.951983 179.982 681.311983 179.982 
L 452.447989 179.982 
Q 443.807989 179.982 443.807989 184.842 
L 443.807989 237.978 
Q 443.807989 242.838 452.447989 242.838 
z
" clip-path="url(#p2bfc234abe)" style="fill: #ffffff; stroke: #2f679c; stroke-width: 0.9; stroke-linejoin: miter"/>
   </g>
   <g id="patch_13">
    <path d="M 720.287982 242.838 
L 905.951977 242.838 
Q 914.591977 242.838 914.591977 237.978 
L 914.591977 184.842 
Q 914.591977 179.982 905.951977 179.982 
L 720.287982 179.982 
Q 711.647982 179.982 711.647982 184.842 
L 711.647982 237.978 
Q 711.647982 242.838 720.287982 242.838 
z
" clip-path="url(#p2bfc234abe)" style="fill: #d3e5f3; stroke: #2f679c; stroke-width: 0.9; stroke-linejoin: miter"/>
   </g>
   <g id="patch_14">
    <path d="M 54.047999 368.658 
L 287.711993 368.658 
Q 296.351993 368.658 296.351993 363.798 
L 296.351993 311.202 
Q 296.351993 306.342 287.711993 306.342 
L 54.047999 306.342 
Q 45.407999 306.342 45.407999 311.202 
L 45.407999 363.798 
Q 45.407999 368.658 54.047999 368.658 
z
" clip-path="url(#p2bfc234abe)" style="fill: #ffffff; stroke: #2f7e7a; stroke-width: 0.9; stroke-linejoin: miter"/>
   </g>
   <g id="patch_15">
    <path d="M 319.967992 360.558 
L 421.151989 360.558 
Q 429.791989 360.558 429.791989 355.698 
L 429.791989 319.842 
Q 429.791989 314.982 421.151989 314.982 
L 319.967992 314.982 
Q 311.327992 314.982 311.327992 319.842 
L 311.327992 355.698 
Q 311.327992 360.558 319.967992 360.558 
z
" clip-path="url(#p2bfc234abe)" style="fill: #f6eedc; stroke: #a2762b; stroke-width: 0.9; stroke-linejoin: miter"/>
   </g>
   <g id="patch_16">
    <path d="M 459.167989 368.658 
L 697.631983 368.658 
Q 706.271982 368.658 706.271982 363.798 
L 706.271982 311.202 
Q 706.271982 306.342 697.631983 306.342 
L 459.167989 306.342 
Q 450.527989 306.342 450.527989 311.202 
L 450.527989 363.798 
Q 450.527989 368.658 459.167989 368.658 
z
" clip-path="url(#p2bfc234abe)" style="fill: #ffffff; stroke: #2f7e7a; stroke-width: 0.9; stroke-linejoin: miter"/>
   </g>
   <g id="patch_17">
    <path d="M 733.727982 368.658 
L 905.951977 368.658 
Q 914.591977 368.658 914.591977 363.798 
L 914.591977 311.202 
Q 914.591977 306.342 905.951977 306.342 
L 733.727982 306.342 
Q 725.087982 306.342 725.087982 311.202 
L 725.087982 363.798 
Q 725.087982 368.658 733.727982 368.658 
z
" clip-path="url(#p2bfc234abe)" style="fill: #d1eae6; stroke: #2f7e7a; stroke-width: 0.9; stroke-linejoin: miter"/>
   </g>
   <g id="patch_18">
    <path d="M 166.367996 419.418 
L 286.751993 419.418 
Q 295.391993 419.418 295.391993 414.558 
L 295.391993 394.362 
Q 295.391993 389.502 286.751993 389.502 
L 166.367996 389.502 
Q 157.727996 389.502 157.727996 394.362 
L 157.727996 414.558 
Q 157.727996 419.418 166.367996 419.418 
z
" clip-path="url(#p2bfc234abe)" style="fill: #f3f5f7; stroke: #80909e; stroke-width: 0.9; stroke-linejoin: miter"/>
   </g>
   <g id="patch_19">
    <path d="M 324.767992 419.418 
L 445.151989 419.418 
Q 453.791989 419.418 453.791989 414.558 
L 453.791989 394.362 
Q 453.791989 389.502 445.151989 389.502 
L 324.767992 389.502 
Q 316.127992 389.502 316.127992 394.362 
L 316.127992 414.558 
Q 316.127992 419.418 324.767992 419.418 
z
" clip-path="url(#p2bfc234abe)" style="fill: #f3f5f7; stroke: #80909e; stroke-width: 0.9; stroke-linejoin: miter"/>
   </g>
   <g id="patch_20">
    <path d="M 483.167988 419.418 
L 603.551985 419.418 
Q 612.191985 419.418 612.191985 414.558 
L 612.191985 394.362 
Q 612.191985 389.502 603.551985 389.502 
L 483.167988 389.502 
Q 474.527988 389.502 474.527988 394.362 
L 474.527988 414.558 
Q 474.527988 419.418 483.167988 419.418 
z
" clip-path="url(#p2bfc234abe)" style="fill: #f3f5f7; stroke: #80909e; stroke-width: 0.9; stroke-linejoin: miter"/>
   </g>
   <g id="patch_21">
    <path d="M 641.567984 419.418 
L 761.951981 419.418 
Q 770.591981 419.418 770.591981 414.558 
L 770.591981 394.362 
Q 770.591981 389.502 761.951981 389.502 
L 641.567984 389.502 
Q 632.927984 389.502 632.927984 394.362 
L 632.927984 414.558 
Q 632.927984 419.418 641.567984 419.418 
z
" clip-path="url(#p2bfc234abe)" style="fill: #f3f5f7; stroke: #80909e; stroke-width: 0.9; stroke-linejoin: miter"/>
   </g>
   <g id="patch_22">
    <path d="M 799.96798 419.418 
L 920.351977 419.418 
Q 928.991977 419.418 928.991977 414.558 
L 928.991977 394.362 
Q 928.991977 389.502 920.351977 389.502 
L 799.96798 389.502 
Q 791.32798 389.502 791.32798 394.362 
L 791.32798 414.558 
Q 791.32798 419.418 799.96798 419.418 
z
" clip-path="url(#p2bfc234abe)" style="fill: #f3f5f7; stroke: #80909e; stroke-width: 0.9; stroke-linejoin: miter"/>
   </g>
   <g id="patch_23">
    <path d="M 75.167998 480.978 
L 884.831978 480.978 
Q 893.471978 480.978 893.471978 476.118 
L 893.471978 440.802 
Q 893.471978 435.942 884.831978 435.942 
L 75.167998 435.942 
Q 66.527998 435.942 66.527998 440.802 
L 66.527998 476.118 
Q 66.527998 480.978 75.167998 480.978 
z
" clip-path="url(#p2bfc234abe)" style="fill: #244b70; stroke: #244b70; stroke-width: 0.9; stroke-linejoin: miter"/>
   </g>
   <g id="patch_24">
    <path d="M 75.167998 509.598 
L 884.831978 509.598 
Q 893.471978 509.598 893.471978 504.738 
L 893.471978 495.342 
Q 893.471978 490.482 884.831978 490.482 
L 75.167998 490.482 
Q 66.527998 490.482 66.527998 495.342 
L 66.527998 504.738 
Q 66.527998 509.598 75.167998 509.598 
z
" clip-path="url(#p2bfc234abe)" style="fill: #f3f5f7; stroke: #e7ebef; stroke-width: 0.9; stroke-linejoin: miter"/>
   </g>
   <g id="text_1">
    <text style="fill: #25313c; font: 700 21.5px 'Microsoft YaHei', '微软雅黑', 'Hiragino Sans GB', 'Arial', 'Helvetica', 'DejaVu Sans', sans-serif; text-anchor: middle" x="479.999988" y="20.787656" transform="rotate(-0 479.999988 20.787656)">AR-HUD 行人碰撞预警的时空参数研究框架</text>
   </g>
   <g id="text_2">
    <text style="fill: #5d6b78; font: 10.5px 'Microsoft YaHei', '微软雅黑', 'Hiragino Sans GB', 'Arial', 'Helvetica', 'DejaVu Sans', sans-serif; text-anchor: middle" x="479.999988" y="38.822344" transform="rotate(-0 479.999988 38.822344)">从参数筛选、机制分解到设计规范整合</text>
   </g>
   <g id="text_3">
    <text style="fill: #25313c; font: 10.8px 'Microsoft YaHei', '微软雅黑', 'Hiragino Sans GB', 'Arial', 'Helvetica', 'DejaVu Sans', sans-serif; text-anchor: middle" x="479.999988" y="59.907094" transform="rotate(-0 479.999988 59.907094)">研究缺口｜现有研究多比较“有/无 AR”，尚缺时间阈值、持续时长、级间间隔与空间动态机制的系统对照</text>
   </g>
   <g id="text_4">
    <text style="fill: #25313c; font: 10.3px 'Microsoft YaHei', '微软雅黑', 'Hiragino Sans GB', 'Arial', 'Helvetica', 'DejaVu Sans', sans-serif" transform="translate(110.919997 86.018132)">风险感知</text>
    <text style="fill: #25313c; font: 10.3px 'Microsoft YaHei', '微软雅黑', 'Hiragino Sans GB', 'Arial', 'Helvetica', 'DejaVu Sans', sans-serif" transform="translate(95.469997 97.42918)">发现警告与行人</text>
   </g>
   <g id="text_5">
    <text style="fill: #25313c; font: 10.3px 'Microsoft YaHei', '微软雅黑', 'Hiragino Sans GB', 'Arial', 'Helvetica', 'DejaVu Sans', sans-serif" transform="translate(338.089991 86.018132)">定位与理解</text>
    <text style="fill: #25313c; font: 10.3px 'Microsoft YaHei', '微软雅黑', 'Hiragino Sans GB', 'Arial', 'Helvetica', 'DejaVu Sans', sans-serif" transform="translate(317.489991 97.42918)">确认目标和冲突位置</text>
   </g>
   <g id="text_6">
    <text style="fill: #25313c; font: 10.3px 'Microsoft YaHei', '微软雅黑', 'Hiragino Sans GB', 'Arial', 'Helvetica', 'DejaVu Sans', sans-serif" transform="translate(570.409985 86.018132)">预测与决策</text>
    <text style="fill: #25313c; font: 10.3px 'Microsoft YaHei', '微软雅黑', 'Hiragino Sans GB', 'Arial', 'Helvetica', 'DejaVu Sans', sans-serif" transform="translate(544.659985 97.42918)">判断路径侵入与紧迫度</text>
   </g>
   <g id="text_7">
    <text style="fill: #25313c; font: 10.3px 'Microsoft YaHei', '微软雅黑', 'Hiragino Sans GB', 'Arial', 'Helvetica', 'DejaVu Sans', sans-serif" transform="translate(807.879979 86.018132)">避险执行</text>
    <text style="fill: #25313c; font: 10.3px 'Microsoft YaHei', '微软雅黑', 'Hiragino Sans GB', 'Arial', 'Helvetica', 'DejaVu Sans', sans-serif" transform="translate(787.279979 97.42918)">松油、制动或转向</text>
   </g>
   <g id="patch_25">
    <path d="M 216.542104 88.83 
Q 247.681705 88.83 277.535567 88.83 
" clip-path="url(#p2bfc234abe)" style="fill: none; stroke: #80909e; stroke-width: 1.15; stroke-linecap: round"/>
    <path d="M 273.535567 86.83 
L 277.535567 88.83 
L 273.535567 90.83 
z
" clip-path="url(#p2bfc234abe)" style="fill: #80909e; stroke: #80909e; stroke-width: 1.15; stroke-linecap: round"/>
   </g>
   <g id="patch_26">
    <path d="M 448.862098 88.83 
Q 480.001699 88.83 509.855561 88.83 
" clip-path="url(#p2bfc234abe)" style="fill: none; stroke: #80909e; stroke-width: 1.15; stroke-linecap: round"/>
    <path d="M 505.855561 86.83 
L 509.855561 88.83 
L 505.855561 90.83 
z
" clip-path="url(#p2bfc234abe)" style="fill: #80909e; stroke: #80909e; stroke-width: 1.15; stroke-linecap: round"/>
   </g>
   <g id="patch_27">
    <path d="M 681.182092 88.83 
Q 712.321693 88.83 742.175555 88.83 
" clip-path="url(#p2bfc234abe)" style="fill: none; stroke: #80909e; stroke-width: 1.15; stroke-linecap: round"/>
    <path d="M 738.175555 86.83 
L 742.175555 88.83 
L 738.175555 90.83 
z
" clip-path="url(#p2bfc234abe)" style="fill: #80909e; stroke: #80909e; stroke-width: 1.15; stroke-linecap: round"/>
   </g>
   <g id="text_8">
    <text style="fill: #5d6b78; font: 8.8px 'Microsoft YaHei', '微软雅黑', 'Hiragino Sans GB', 'Arial', 'Helvetica', 'DejaVu Sans', sans-serif; text-anchor: end" x="468.479988" y="115.82025" transform="rotate(-0 468.479988 115.82025)">理论支撑：PIEV 反应链 · 情境意识（SA）</text>
   </g>
   <g id="text_9">
    <text style="fill: #5d6b78; font: 8.8px 'Microsoft YaHei', '微软雅黑', 'Hiragino Sans GB', 'Arial', 'Helvetica', 'DejaVu Sans', sans-serif; text-anchor: start" x="491.519988" y="115.82025" transform="rotate(-0 491.519988 115.82025)">生态界面设计（EID）· 多资源与注意捕获理论</text>
   </g>
   <g id="patch_28">
    <path d="M 479.999988 67.920293 
Q 479.999988 71.818632 479.999988 74.431232 
" clip-path="url(#p2bfc234abe)" style="fill: none; stroke: #80909e; stroke-width: 1.15; stroke-linecap: round"/>
    <path d="M 481.999988 70.431232 
L 479.999988 74.431232 
L 477.999988 70.431232 
z
" clip-path="url(#p2bfc234abe)" style="fill: #80909e; stroke: #80909e; stroke-width: 1.15; stroke-linecap: round"/>
   </g>
   <g id="text_10">
    <text style="fill: #ffffff; font: 700 11.4px 'Microsoft YaHei', '微软雅黑', 'Hiragino Sans GB', 'Arial', 'Helvetica', 'DejaVu Sans', sans-serif; text-anchor: middle" x="479.999988" y="135.554344" transform="rotate(-0 479.999988 135.554344)">总目标｜建立“时间分层 × 空间动态”的可检验设计规范，并识别其作用于风险加工链的阶段</text>
   </g>
   <g id="patch_29">
    <path d="M 479.999988 101.939502 
Q 479.999988 112.318405 479.999988 121.46747 
" clip-path="url(#p2bfc234abe)" style="fill: none; stroke: #80909e; stroke-width: 1.1; stroke-linecap: round"/>
    <path d="M 481.999988 117.46747 
L 479.999988 121.46747 
L 477.999988 117.46747 
z
" clip-path="url(#p2bfc234abe)" style="fill: #80909e; stroke: #80909e; stroke-width: 1.1; stroke-linecap: round"/>
   </g>
   <g id="text_11">
    <text style="fill: #2f679c; font: 700 15.5px 'Microsoft YaHei', '微软雅黑', 'Hiragino Sans GB', 'Arial', 'Helvetica', 'DejaVu Sans', sans-serif; text-anchor: start" x="40.319999" y="172.252031" transform="rotate(-0 40.319999 172.252031)">a</text>
   </g>
   <g id="text_12">
    <text style="fill: #2f679c; font: 700 15.5px 'Microsoft YaHei', '微软雅黑', 'Hiragino Sans GB', 'Arial', 'Helvetica', 'DejaVu Sans', sans-serif; text-anchor: start" x="67.199998" y="172.252031" transform="rotate(-0 67.199998 172.252031)">研究一｜时间参数设计规范</text>
   </g>
   <g id="text_13">
    <text style="fill: #5d6b78; font: 9.8px 'Microsoft YaHei', '微软雅黑', 'Hiragino Sans GB', 'Arial', 'Helvetica', 'DejaVu Sans', sans-serif; text-anchor: start" x="364.799991" y="168.966187" transform="rotate(-0 364.799991 168.966187)">回答：何时出现、显示多久、何时升级？</text>
   </g>
   <g id="text_14">
    <text style="fill: #25313c; font: 10.6px 'Microsoft YaHei', '微软雅黑', 'Hiragino Sans GB', 'Arial', 'Helvetica', 'DejaVu Sans', sans-serif" transform="translate(56.639999 190.625553)">实验1｜单层时间参数</text>
    <text style="fill: #25313c; font: 10.6px 'Microsoft YaHei', '微软雅黑', 'Hiragino Sans GB', 'Arial', 'Helvetica', 'DejaVu Sans', sans-serif" transform="translate(56.639999 202.644529)">阶段A：出现 5 / 3 / 2 s</text>
    <text style="fill: #25313c; font: 10.6px 'Microsoft YaHei', '微软雅黑', 'Hiragino Sans GB', 'Arial', 'Helvetica', 'DejaVu Sans', sans-serif" transform="translate(56.639999 214.663504)">阶段B：持续 1 / 2 / 3 s</text>
    <text style="fill: #25313c; font: 10.6px 'Microsoft YaHei', '微软雅黑', 'Hiragino Sans GB', 'Arial', 'Helvetica', 'DejaVu Sans', sans-serif" transform="translate(56.639999 226.406913)">或状态维持</text>
    <text style="fill: #25313c; font: 10.6px 'Microsoft YaHei', '微软雅黑', 'Hiragino Sans GB', 'Arial', 'Helvetica', 'DejaVu Sans', sans-serif" transform="translate(56.639999 238.150322)">检验：安全—平顺—负荷折中</text>
   </g>
   <g id="text_15">
    <text style="fill: #25313c; font: 700 10.7px 'Microsoft YaHei', '微软雅黑', 'Hiragino Sans GB', 'Arial', 'Helvetica', 'DejaVu Sans', sans-serif" transform="translate(342.493491 196.904738)">决策门 1</text>
    <text style="fill: #25313c; font: 700 10.7px 'Microsoft YaHei', '微软雅黑', 'Hiragino Sans GB', 'Arial', 'Helvetica', 'DejaVu Sans', sans-serif" transform="translate(342.439991 208.758933)">安全不劣</text>
    <text style="fill: #25313c; font: 700 10.7px 'Microsoft YaHei', '微软雅黑', 'Hiragino Sans GB', 'Arial', 'Helvetica', 'DejaVu Sans', sans-serif" transform="translate(337.089991 220.613129)">效应有意义</text>
    <text style="fill: #25313c; font: 700 10.7px 'Microsoft YaHei', '微软雅黑', 'Hiragino Sans GB', 'Arial', 'Helvetica', 'DejaVu Sans', sans-serif" transform="translate(337.089991 232.467325)">负荷可接受</text>
   </g>
   <g id="text_16">
    <text style="fill: #25313c; font: 10.5px 'Microsoft YaHei', '微软雅黑', 'Hiragino Sans GB', 'Arial', 'Helvetica', 'DejaVu Sans', sans-serif" transform="translate(455.039989 190.90875)">实验2｜分层升级规则</text>
    <text style="fill: #25313c; font: 10.5px 'Microsoft YaHei', '微软雅黑', 'Hiragino Sans GB', 'Arial', 'Helvetica', 'DejaVu Sans', sans-serif" transform="translate(455.039989 202.913072)">无警告 / 入选单层 / 二级分层</text>
    <text style="fill: #25313c; font: 10.5px 'Microsoft YaHei', '微软雅黑', 'Hiragino Sans GB', 'Arial', 'Helvetica', 'DejaVu Sans', sans-serif" transform="translate(455.039989 214.545694)">L1–L2：0.7 / 1.0 / 1.5 s</text>
    <text style="fill: #25313c; font: 10.5px 'Microsoft YaHei', '微软雅黑', 'Hiragino Sans GB', 'Arial', 'Helvetica', 'DejaVu Sans', sans-serif" transform="translate(455.039989 226.178316)">机制分解：发现阶段</text>
    <text style="fill: #25313c; font: 10.5px 'Microsoft YaHei', '微软雅黑', 'Hiragino Sans GB', 'Arial', 'Helvetica', 'DejaVu Sans', sans-serif" transform="translate(455.039989 237.810937)">vs 验证—决策阶段</text>
   </g>
   <g id="text_17">
    <text style="fill: #25313c; font: 700 10.8px 'Microsoft YaHei', '微软雅黑', 'Hiragino Sans GB', 'Arial', 'Helvetica', 'DejaVu Sans', sans-serif" transform="translate(780.71998 196.496651)">时间设计规范</text>
    <text style="fill: #25313c; font: 700 10.8px 'Microsoft YaHei', '微软雅黑', 'Hiragino Sans GB', 'Arial', 'Helvetica', 'DejaVu Sans', sans-serif" transform="translate(791.51998 208.461634)">出现窗口</text>
    <text style="fill: #25313c; font: 700 10.8px 'Microsoft YaHei', '微软雅黑', 'Hiragino Sans GB', 'Arial', 'Helvetica', 'DejaVu Sans', sans-serif" transform="translate(775.31998 220.426616)">持续与撤销规则</text>
    <text style="fill: #25313c; font: 700 10.8px 'Microsoft YaHei', '微软雅黑', 'Hiragino Sans GB', 'Arial', 'Helvetica', 'DejaVu Sans', sans-serif" transform="translate(765.324073 232.391599)">L1–L2 触发与升级</text>
   </g>
   <g id="patch_30">
    <path d="M 287.58468 211.41 
Q 295.682791 211.41 302.38336 211.41 
" clip-path="url(#p2bfc234abe)" style="fill: none; stroke: #2f679c; stroke-width: 1.25; stroke-linecap: round"/>
    <path d="M 298.38336 209.41 
L 302.38336 211.41 
L 298.38336 213.41 
z
" clip-path="url(#p2bfc234abe)" style="fill: #2f679c; stroke: #2f679c; stroke-width: 1.25; stroke-linecap: round"/>
   </g>
   <g id="patch_31">
    <path d="M 423.901278 211.41 
Q 433.440787 211.41 441.582753 211.41 
" clip-path="url(#p2bfc234abe)" style="fill: none; stroke: #2f679c; stroke-width: 1.25; stroke-linecap: round"/>
    <path d="M 437.582753 209.41 
L 441.582753 211.41 
L 437.582753 213.41 
z
" clip-path="url(#p2bfc234abe)" style="fill: #2f679c; stroke: #2f679c; stroke-width: 1.25; stroke-linecap: round"/>
   </g>
   <g id="patch_32">
    <path d="M 690.779045 211.41 
Q 700.798789 211.41 709.42099 211.41 
" clip-path="url(#p2bfc234abe)" style="fill: none; stroke: #2f679c; stroke-width: 1.25; stroke-linecap: round"/>
    <path d="M 705.42099 209.41 
L 709.42099 211.41 
L 705.42099 213.41 
z
" clip-path="url(#p2bfc234abe)" style="fill: #2f679c; stroke: #2f679c; stroke-width: 1.25; stroke-linecap: round"/>
   </g>
   <g id="text_18">
    <text style="fill: #2f679c; font: 9.2px 'Microsoft YaHei', '微软雅黑', 'Hiragino Sans GB', 'Arial', 'Helvetica', 'DejaVu Sans', sans-serif; text-anchor: middle" x="813.11998" y="267.724625" transform="rotate(-0 813.11998 267.724625)">研究二固定研究一的时间方案</text>
   </g>
   <g id="patch_33">
    <path d="M 813.11998 243.959897 
Q 813.11998 250.830222 813.11998 256.582513 
" clip-path="url(#p2bfc234abe)" style="fill: none; stroke-dasharray: 3.7,1.6; stroke-dashoffset: 0; stroke: #2f679c; stroke-linecap: round"/>
    <path d="M 814.91998 252.982513 
L 813.11998 256.582513 
L 811.31998 252.982513 
z
" clip-path="url(#p2bfc234abe)" style="fill: #2f679c; stroke-dasharray: 3.7,1.6; stroke-dashoffset: 0; stroke: #2f679c; stroke-linecap: round"/>
   </g>
   <g id="patch_34">
    <path d="M 813.11998 272.577656 
Q 813.11998 273.237765 813.11998 272.891643 
" clip-path="url(#p2bfc234abe)" style="fill: none; stroke-dasharray: 3.33,1.44; stroke-dashoffset: 0; stroke: #2f679c; stroke-width: 0.9; stroke-linecap: round"/>
    <path d="M 814.71998 269.691643 
L 813.11998 272.891643 
L 811.51998 269.691643 
z
" clip-path="url(#p2bfc234abe)" style="fill: #2f679c; stroke-dasharray: 3.33,1.44; stroke-dashoffset: 0; stroke: #2f679c; stroke-width: 0.9; stroke-linecap: round"/>
   </g>
   <g id="text_19">
    <text style="fill: #2f7e7a; font: 700 15.5px 'Microsoft YaHei', '微软雅黑', 'Hiragino Sans GB', 'Arial', 'Helvetica', 'DejaVu Sans', sans-serif; text-anchor: start" x="40.319999" y="296.452031" transform="rotate(-0 40.319999 296.452031)">b</text>
   </g>
   <g id="text_20">
    <text style="fill: #2f7e7a; font: 700 15.5px 'Microsoft YaHei', '微软雅黑', 'Hiragino Sans GB', 'Arial', 'Helvetica', 'DejaVu Sans', sans-serif; text-anchor: start" x="67.199998" y="296.452031" transform="rotate(-0 67.199998 296.452031)">研究二｜空间动态信息的促进作用</text>
   </g>
   <g id="text_21">
    <text style="fill: #5d6b78; font: 9.8px 'Microsoft YaHei', '微软雅黑', 'Hiragino Sans GB', 'Arial', 'Helvetica', 'DejaVu Sans', sans-serif; text-anchor: start" x="364.799991" y="293.196812" transform="rotate(-0 364.799991 293.196812)">先回答“锁定在哪里”，再回答“如何随风险变化”。</text>
   </g>
   <g id="text_22">
    <text style="fill: #25313c; font: 10.6px 'Microsoft YaHei', '微软雅黑', 'Hiragino Sans GB', 'Arial', 'Helvetica', 'DejaVu Sans', sans-serif" transform="translate(56.639999 322.675204)">实验3｜空间参照系与锁定策略</text>
    <text style="fill: #25313c; font: 10.6px 'Microsoft YaHei', '微软雅黑', 'Hiragino Sans GB', 'Arial', 'Helvetica', 'DejaVu Sans', sans-serif" transform="translate(56.639999 334.793853)">无警告 / BD / BR / BW / BW+BR</text>
    <text style="fill: #25313c; font: 10.6px 'Microsoft YaHei', '微软雅黑', 'Hiragino Sans GB', 'Arial', 'Helvetica', 'DejaVu Sans', sans-serif" transform="translate(56.639999 346.537262)">主指标：真实行人 TTFF</text>
    <text style="fill: #25313c; font: 10.6px 'Microsoft YaHei', '微软雅黑', 'Hiragino Sans GB', 'Arial', 'Helvetica', 'DejaVu Sans', sans-serif" transform="translate(56.639999 358.280671)">机制指标：定位转换成本</text>
   </g>
   <g id="text_23">
    <text style="fill: #25313c; font: 700 10.7px 'Microsoft YaHei', '微软雅黑', 'Hiragino Sans GB', 'Arial', 'Helvetica', 'DejaVu Sans', sans-serif" transform="translate(349.213491 322.994738)">决策门 2</text>
    <text style="fill: #25313c; font: 700 10.7px 'Microsoft YaHei', '微软雅黑', 'Hiragino Sans GB', 'Arial', 'Helvetica', 'DejaVu Sans', sans-serif" transform="translate(338.459991 334.848933)">定位收益明确</text>
    <text style="fill: #25313c; font: 700 10.7px 'Microsoft YaHei', '微软雅黑', 'Hiragino Sans GB', 'Arial', 'Helvetica', 'DejaVu Sans', sans-serif" transform="translate(349.159991 346.703129)">安全不劣</text>
    <text style="fill: #25313c; font: 700 10.7px 'Microsoft YaHei', '微软雅黑', 'Hiragino Sans GB', 'Arial', 'Helvetica', 'DejaVu Sans', sans-serif" transform="translate(343.809991 358.557325)">并列选更简</text>
   </g>
   <g id="text_24">
    <text style="fill: #25313c; font: 10.5px 'Microsoft YaHei', '微软雅黑', 'Hiragino Sans GB', 'Arial', 'Helvetica', 'DejaVu Sans', sans-serif" transform="translate(461.759988 322.640827)">实验4｜风险演化动态（2×2）</text>
    <text style="fill: #25313c; font: 10.5px 'Microsoft YaHei', '微软雅黑', 'Hiragino Sans GB', 'Arial', 'Helvetica', 'DejaVu Sans', sans-serif" transform="translate(461.759988 334.683867)">风险量级映射：无 / 有</text>
    <text style="fill: #25313c; font: 10.5px 'Microsoft YaHei', '微软雅黑', 'Hiragino Sans GB', 'Arial', 'Helvetica', 'DejaVu Sans', sans-serif" transform="translate(461.759988 346.626239)">运动趋势映射：无 / 有</text>
    <text style="fill: #25313c; font: 10.5px 'Microsoft YaHei', '微软雅黑', 'Hiragino Sans GB', 'Arial', 'Helvetica', 'DejaVu Sans', sans-serif" transform="translate(461.759988 358.258861)">D0–D3：检验主效应、交互与过度动态</text>
   </g>
   <g id="text_25">
    <text style="fill: #25313c; font: 700 10.8px 'Microsoft YaHei', '微软雅黑', 'Hiragino Sans GB', 'Arial', 'Helvetica', 'DejaVu Sans', sans-serif" transform="translate(787.43998 322.382548)">空间动态规范</text>
    <text style="fill: #25313c; font: 700 10.8px 'Microsoft YaHei', '微软雅黑', 'Hiragino Sans GB', 'Arial', 'Helvetica', 'DejaVu Sans', sans-serif" transform="translate(779.480042 334.755737)">参照系/锁定方式</text>
    <text style="fill: #25313c; font: 700 10.8px 'Microsoft YaHei', '微软雅黑', 'Hiragino Sans GB', 'Arial', 'Helvetica', 'DejaVu Sans', sans-serif" transform="translate(776.63998 346.720719)">最小必要动态信息</text>
    <text style="fill: #25313c; font: 700 10.8px 'Microsoft YaHei', '微软雅黑', 'Hiragino Sans GB', 'Arial', 'Helvetica', 'DejaVu Sans', sans-serif" transform="translate(782.03998 358.685702)">适用与失效边界</text>
   </g>
   <g id="patch_35">
    <path d="M 297.182102 337.5 
Q 303.840385 337.5 309.101125 337.5 
" clip-path="url(#p2bfc234abe)" style="fill: none; stroke: #2f7e7a; stroke-width: 1.25; stroke-linecap: round"/>
    <path d="M 305.101125 335.5 
L 309.101125 337.5 
L 305.101125 339.5 
z
" clip-path="url(#p2bfc234abe)" style="fill: #2f7e7a; stroke: #2f7e7a; stroke-width: 1.25; stroke-linecap: round"/>
   </g>
   <g id="patch_36">
    <path d="M 430.621278 337.5 
Q 440.160787 337.5 448.302753 337.5 
" clip-path="url(#p2bfc234abe)" style="fill: none; stroke: #2f7e7a; stroke-width: 1.25; stroke-linecap: round"/>
    <path d="M 444.302753 335.5 
L 448.302753 337.5 
L 444.302753 339.5 
z
" clip-path="url(#p2bfc234abe)" style="fill: #2f7e7a; stroke: #2f7e7a; stroke-width: 1.25; stroke-linecap: round"/>
   </g>
   <g id="patch_37">
    <path d="M 707.101154 337.5 
Q 715.681208 337.5 722.86372 337.5 
" clip-path="url(#p2bfc234abe)" style="fill: none; stroke: #2f7e7a; stroke-width: 1.25; stroke-linecap: round"/>
    <path d="M 718.86372 335.5 
L 722.86372 337.5 
L 718.86372 339.5 
z
" clip-path="url(#p2bfc234abe)" style="fill: #2f7e7a; stroke: #2f7e7a; stroke-width: 1.25; stroke-linecap: round"/>
   </g>
   <g id="text_26">
    <text style="fill: #25313c; font: 700 12.2px 'Microsoft YaHei', '微软雅黑', 'Hiragino Sans GB', 'Arial', 'Helvetica', 'DejaVu Sans', sans-serif; text-anchor: start" x="31.679999" y="407.887437" transform="rotate(-0 31.679999 407.887437)">统一证据链</text>
   </g>
   <g id="text_27">
    <text style="fill: #25313c; font: 9.5px 'Microsoft YaHei', '微软雅黑', 'Hiragino Sans GB', 'Arial', 'Helvetica', 'DejaVu Sans', sans-serif" transform="translate(217.059994 401.86653)">感知</text>
    <text style="fill: #25313c; font: 9.5px 'Microsoft YaHei', '微软雅黑', 'Hiragino Sans GB', 'Arial', 'Helvetica', 'DejaVu Sans', sans-serif" transform="translate(197.261401 412.391283)">TTFF · 漏检</text>
   </g>
   <g id="text_28">
    <text style="fill: #25313c; font: 9.5px 'Microsoft YaHei', '微软雅黑', 'Hiragino Sans GB', 'Arial', 'Helvetica', 'DejaVu Sans', sans-serif" transform="translate(375.45999 401.86653)">理解</text>
    <text style="fill: #25313c; font: 9.5px 'Microsoft YaHei', '微软雅黑', 'Hiragino Sans GB', 'Arial', 'Helvetica', 'DejaVu Sans', sans-serif" transform="translate(348.546787 412.391283)">定位 · 风险判断</text>
   </g>
   <g id="text_29">
    <text style="fill: #25313c; font: 9.5px 'Microsoft YaHei', '微软雅黑', 'Hiragino Sans GB', 'Arial', 'Helvetica', 'DejaVu Sans', sans-serif" transform="translate(533.859986 401.86653)">预测</text>
    <text style="fill: #25313c; font: 9.5px 'Microsoft YaHei', '微软雅黑', 'Hiragino Sans GB', 'Arial', 'Helvetica', 'DejaVu Sans', sans-serif" transform="translate(511.696783 412.391283)">轨迹 · 冲突点</text>
   </g>
   <g id="text_30">
    <text style="fill: #25313c; font: 9.5px 'Microsoft YaHei', '微软雅黑', 'Hiragino Sans GB', 'Arial', 'Helvetica', 'DejaVu Sans', sans-serif" transform="translate(692.259982 401.480058)">执行</text>
    <text style="fill: #25313c; font: 9.5px 'Microsoft YaHei', '微软雅黑', 'Hiragino Sans GB', 'Arial', 'Helvetica', 'DejaVu Sans', sans-serif" transform="translate(675.521428 412.712442)">制动 · jerk</text>
   </g>
   <g id="text_31">
    <text style="fill: #25313c; font: 9.5px 'Microsoft YaHei', '微软雅黑', 'Hiragino Sans GB', 'Arial', 'Helvetica', 'DejaVu Sans', sans-serif" transform="translate(836.409978 401.86653)">安全与代价</text>
    <text style="fill: #25313c; font: 9.5px 'Microsoft YaHei', '微软雅黑', 'Hiragino Sans GB', 'Arial', 'Helvetica', 'DejaVu Sans', sans-serif" transform="translate(811.078377 412.391283)">TTMD · 碰撞 · 负荷</text>
   </g>
   <g id="patch_38">
    <path d="M 296.221282 404.46 
Q 305.76079 404.46 314.238166 404.46 
" clip-path="url(#p2bfc234abe)" style="fill: none; stroke: #80909e; stroke-width: 0.95; stroke-linecap: round"/>
    <path d="M 311.038166 402.86 
L 314.238166 404.46 
L 311.038166 406.06 
z
" clip-path="url(#p2bfc234abe)" style="fill: #80909e; stroke: #80909e; stroke-width: 0.95; stroke-linecap: round"/>
   </g>
   <g id="patch_39">
    <path d="M 454.621278 404.46 
Q 464.160786 404.46 472.638162 404.46 
" clip-path="url(#p2bfc234abe)" style="fill: none; stroke: #80909e; stroke-width: 0.95; stroke-linecap: round"/>
    <path d="M 469.438162 402.86 
L 472.638162 404.46 
L 469.438162 406.06 
z
" clip-path="url(#p2bfc234abe)" style="fill: #80909e; stroke: #80909e; stroke-width: 0.95; stroke-linecap: round"/>
   </g>
   <g id="patch_40">
    <path d="M 613.021274 404.46 
Q 622.560782 404.46 631.038158 404.46 
" clip-path="url(#p2bfc234abe)" style="fill: none; stroke: #80909e; stroke-width: 0.95; stroke-linecap: round"/>
    <path d="M 627.838158 402.86 
L 631.038158 404.46 
L 627.838158 406.06 
z
" clip-path="url(#p2bfc234abe)" style="fill: #80909e; stroke: #80909e; stroke-width: 0.95; stroke-linecap: round"/>
   </g>
   <g id="patch_41">
    <path d="M 771.42127 404.46 
Q 780.960778 404.46 789.438154 404.46 
" clip-path="url(#p2bfc234abe)" style="fill: none; stroke: #80909e; stroke-width: 0.95; stroke-linecap: round"/>
    <path d="M 786.238154 402.86 
L 789.438154 404.46 
L 786.238154 406.06 
z
" clip-path="url(#p2bfc234abe)" style="fill: #80909e; stroke: #80909e; stroke-width: 0.95; stroke-linecap: round"/>
   </g>
   <g id="patch_42">
    <path d="M 821.161503 368.987959 
Q 840.000214 379.080126 857.951952 388.697129 
" clip-path="url(#p2bfc234abe)" style="fill: none; stroke-dasharray: 3.33,1.44; stroke-dashoffset: 0; stroke: #2f7e7a; stroke-width: 0.9; stroke-linecap: round"/>
    <path d="M 855.628623 385.410468 
L 857.951952 388.697129 
L 853.928626 388.583795 
z
" clip-path="url(#p2bfc234abe)" style="fill: #2f7e7a; stroke-dasharray: 3.33,1.44; stroke-dashoffset: 0; stroke: #2f7e7a; stroke-width: 0.9; stroke-linecap: round"/>
   </g>
   <g id="patch_43">
    <path d="M 479.999988 420.538579 
Q 479.999988 426.330365 479.999988 430.612806 
" clip-path="url(#p2bfc234abe)" style="fill: none; stroke: #244b70; stroke-width: 1.35; stroke-linecap: round"/>
    <path d="M 482.199988 426.212806 
L 479.999988 430.612806 
L 477.799988 426.212806 
z
" clip-path="url(#p2bfc234abe)" style="fill: #244b70; stroke: #244b70; stroke-width: 1.35; stroke-linecap: round"/>
   </g>
   <g id="text_32">
    <text style="fill: #ffffff; font: 700 11.5px 'Microsoft YaHei', '微软雅黑', 'Hiragino Sans GB', 'Arial', 'Helvetica', 'DejaVu Sans', sans-serif" transform="translate(327.764246 448.725537)">最终成果｜AR-HUD 行人碰撞预警时空整合模型与设计规范</text>
    <text style="fill: #ffffff; font: 700 11.5px 'Microsoft YaHei', '微软雅黑', 'Hiragino Sans GB', 'Arial', 'Helvetica', 'DejaVu Sans', sans-serif" transform="translate(272.520222 461.915534)">出现时机 + 持续/撤销 + 级间间隔 + 空间参照系 + 风险量级动态 + 运动趋势动态</text>
    <text style="fill: #ffffff; font: 700 11.5px 'Microsoft YaHei', '微软雅黑', 'Hiragino Sans GB', 'Arial', 'Helvetica', 'DejaVu Sans', sans-serif" transform="translate(301.762566 474.656025)">判定原则：安全约束优先 → 操控平顺 → 认知代价 → 反应速度与偏好</text>
   </g>
   <g id="text_33">
    <text style="fill: #5d6b78; font: 9.1px 'Microsoft YaHei', '微软雅黑', 'Hiragino Sans GB', 'Arial', 'Helvetica', 'DejaVu Sans', sans-serif; text-anchor: middle" x="479.999988" y="502.651273" transform="rotate(-0 479.999988 502.651273)">结论边界｜短期模拟驾驶 · 视觉 AR-HUD · 行人横穿场景；真实道路、长期适应与多模态紧急干预需独立验证</text>
   </g>
   <g id="text_34">
    <text style="fill: #5d6b78; font: 8.8px 'Microsoft YaHei', '微软雅黑', 'Hiragino Sans GB', 'Arial', 'Helvetica', 'DejaVu Sans', sans-serif; text-anchor: middle" x="479.999988" y="527.89225" transform="rotate(-0 479.999988 527.89225)">实线：实验递进与参数收敛　　虚线：跨研究控制参数与统一评价约束</text>
   </g>
  </g>
 </g>
 <defs>
  <clipPath id="p2bfc234abe">
   <rect x="0" y="0" width="959.999976" height="540"/>
  </clipPath>
 </defs>
</svg>
